<svg width="50" height="50" viewBox="0 0 50 50" fill="none" xmlns="http://www.w3.org/2000/svg">
<g id="Group">
<path id="Vector" d="M29.1667 25L25 29.1667L20.8333 25L25 20.8333L29.1667 25ZM25 12.5L29.4167 16.9167L34.625 11.7083L25 2.08334L15.375 11.7083L20.5833 16.9167L25 12.5ZM12.5 25L16.9167 20.5833L11.7083 15.375L2.08333 25L11.7083 34.625L16.9167 29.4167L12.5 25ZM37.5 25L33.0833 29.4167L38.2917 34.625L47.9167 25L38.2917 15.375L33.0833 20.5833L37.5 25ZM25 37.5L20.5833 33.0833L15.375 38.2917L25 47.9167L34.625 38.2917L29.4167 33.0833L25 37.5Z" fill="white"/>
</g>
</svg>
